<?xml version="1.0" encoding="UTF-8"?>
<svg width="16px" height="16px" viewBox="0 0 16 16" version="1.1" xmlns="http://www.w3.org/2000/svg" xmlns:xlink="http://www.w3.org/1999/xlink">
    <!-- Generator: Sketch 47.1 (45422) - http://www.bohemiancoding.com/sketch -->
    <title>Calendar</title>
    <desc>Created with Sketch.</desc>
    <defs></defs>
    <g id="wordpress-plugin" stroke="none" stroke-width="1" fill="none" fill-rule="evenodd">
        <g id="Artboard" transform="translate(-13.000000, -11.000000)" fill="#333743">
            <path d="M17,11 C17.631,11 18.143,11.512 18.143,12.143 L18.143,13.286 C18.143,13.917 17.631,14.429 17,14.429 C16.369,14.429 15.857,13.917 15.857,13.286 L15.857,12.143 C15.857,11.512 16.369,11 17,11 Z M25.001,11 C25.633,11 26.144,11.512 26.144,12.143 L26.144,13.286 C26.144,13.917 25.633,14.429 25.001,14.429 C24.37,14.429 23.858,13.917 23.858,13.286 L23.858,12.143 C23.858,11.512 24.37,11 25.001,11 Z M14.143,12.715 L15.268,12.715 L15.268,13.304 C15.268,15.037 17,15.019 17,15.019 C18.715,15.019 18.697,13.286 18.697,13.286 L18.697,12.715 L23.269,12.715 L23.287,13.304 C23.287,15.001 25.001,15.019 25.001,15.019 C26.698,15.019 26.716,13.286 26.716,13.286 L26.716,12.715 L27.859,12.715 C28.49,12.715 29.002,13.226 29.002,13.858 L29.002,25.859 C29.002,26.491 28.49,27.002 27.859,27.002 L14.143,27.002 C13.511,27.002 13,26.491 13,25.859 L13,13.858 C13,13.226 13.511,12.715 14.143,12.715 Z M14.143,16.715 L14.143,25.859 L27.859,25.859 L27.859,16.715 L14.143,16.715 Z" id="Calendar"></path>
        </g>
    </g>
</svg>