<?xml version="1.0" encoding="UTF-8"?>
<svg width="20px" height="16px" viewBox="0 0 20 16" version="1.1" xmlns="http://www.w3.org/2000/svg" xmlns:xlink="http://www.w3.org/1999/xlink">
    <!-- Generator: Sketch 47.1 (45422) - http://www.bohemiancoding.com/sketch -->
    <title>user3</title>
    <desc>Created with Sketch.</desc>
    <defs></defs>
    <g id="wordpress-plugin" stroke="none" stroke-width="1" fill="none" fill-rule="evenodd">
        <g id="Artboard" transform="translate(-83.000000, -11.000000)" fill="#333743">
            <path d="M96.035,12.782 C96.165,12.782 96.298,12.794 96.383,12.816 L96.51,12.839 C98.85,13.32 98.774,15.442 98.774,15.822 C98.774,16.204 98.64,16.57 98.46,16.762 C98.531,17.189 98.45,18.299 98.296,19.036 C98.141,19.771 97.858,19.796 97.573,20.101 C97.573,20.574 97.818,21.063 97.957,21.211 L98.047,21.264 C98.344,21.332 98.836,21.441 99.272,21.544 C99.667,21.615 100.16,21.689 100.437,21.751 C101.146,21.914 101.254,22.309 101.439,22.655 C101.591,22.939 101.979,24.195 102.106,24.603 L102.144,24.714 L102.142,24.718 L102.144,24.732 C102.027,24.859 101.674,25.31 101.397,25.31 L101.263,25.31 C101.081,25.34 100.031,25.348 98.672,25.351 C98.393,24.455 98.072,23.477 97.899,23.158 L97.823,23.006 C97.611,22.58 97.318,22 96.309,21.765 C96.085,21.716 95.769,21.664 95.435,21.601 C95.222,21.567 95.01,21.531 94.816,21.492 C94.588,21.441 94.343,21.386 94.112,21.334 L93.921,21.29 L94.043,21.264 L94.133,21.211 C94.272,21.063 94.519,20.574 94.519,20.101 C94.269,19.832 94.018,19.78 93.858,19.278 C93.893,19.169 93.925,19.051 93.951,18.918 C94.124,18.098 94.246,16.808 94.193,16.074 C94.433,15.719 94.574,15.223 94.574,14.722 L94.574,14.679 C94.574,14.444 94.577,13.922 94.424,13.314 C94.724,13.107 95.1,12.941 95.58,12.839 L95.709,12.816 C95.788,12.793 95.91,12.782 96.035,12.782 Z M98.178,26.045 L98.227,26.184 L98.224,26.193 L98.227,26.211 C98.079,26.371 97.627,26.947 97.274,26.947 C97.255,26.947 97.195,26.947 97.103,26.949 C96.854,26.985 95.31,27 93.372,27 C92.456,27 91.454,26.993 90.465,26.989 C89.472,26.993 88.471,27 87.555,27 C85.621,27 84.072,26.985 83.826,26.949 C83.733,26.947 83.673,26.947 83.65,26.947 C83.299,26.947 83.15,26.371 83,26.211 L83.006,26.193 L83,26.184 L83.05,26.045 C83.21,25.525 83.403,23.927 83.6,23.565 C83.837,23.128 83.973,22.625 84.873,22.417 C85.224,22.34 85.854,22.244 86.357,22.147 C86.911,22.023 87.538,21.882 87.917,21.792 L88.032,21.73 C88.208,21.544 88.522,20.915 88.522,20.311 C88.157,19.928 87.795,19.895 87.601,18.956 C87.402,18.02 87.299,16.608 87.388,16.066 C87.162,15.822 86.989,15.36 86.989,14.87 C86.989,14.385 86.895,11.686 89.874,11.074 L90.035,11.039 C90.135,11.012 90.289,11 90.444,11 C90.615,11 90.783,11.012 90.894,11.039 L91.055,11.074 C94.034,11.686 93.937,14.385 93.937,14.87 C93.937,15.36 93.764,15.822 93.535,16.066 C93.628,16.608 93.524,18.02 93.328,18.956 C93.131,19.895 92.769,19.928 92.408,20.311 C92.408,20.915 92.721,21.544 92.898,21.73 L93.012,21.792 C93.39,21.882 94.018,22.023 94.571,22.147 C95.072,22.244 95.705,22.34 96.053,22.417 C96.955,22.625 97.091,23.128 97.327,23.565 C97.525,23.927 98.021,25.525 98.178,26.045 Z" id="user3"></path>
        </g>
    </g>
</svg>